<?xml version="1.0" encoding="UTF-8" standalone="no"?>
<!DOCTYPE svg PUBLIC "-//W3C//DTD SVG 1.1//EN"
 "http://www.w3.org/Graphics/SVG/1.1/DTD/svg11.dtd">
<!-- Generated by graphviz version 9.0.0 (20230911.1827)
 -->
<!-- Pages: 1 -->
<svg width="826pt" height="980pt"
 viewBox="0.00 0.00 826.00 980.00" xmlns="http://www.w3.org/2000/svg" xmlns:xlink="http://www.w3.org/1999/xlink">
<g id="graph0" class="graph" transform="scale(1 1) rotate(0) translate(4 976)">
<polygon fill="white" stroke="none" points="-4,4 -4,-976 822,-976 822,4 -4,4"/>
<!-- hfx -->
<g id="node1" class="node">
<title>hfx</title>
<ellipse fill="none" stroke="black" cx="121" cy="-954" rx="27" ry="18"/>
<text text-anchor="middle" x="121" y="-948.95" font-family="Times,serif" font-size="14.00">hfx</text>
</g>
<!-- bvb -->
<g id="node2" class="node">
<title>bvb</title>
<ellipse fill="none" stroke="black" cx="233" cy="-882" rx="27" ry="18"/>
<text text-anchor="middle" x="233" y="-876.95" font-family="Times,serif" font-size="14.00">bvb</text>
</g>
<!-- hfx&#45;&#45;bvb -->
<g id="edge1" class="edge">
<title>hfx&#45;&#45;bvb</title>
<path fill="none" stroke="black" d="M137.14,-939.5C156.87,-926 189.82,-905.51 211.62,-893.27"/>
</g>
<!-- rhn -->
<g id="node3" class="node">
<title>rhn</title>
<ellipse fill="none" stroke="black" cx="169" cy="-162" rx="27" ry="18"/>
<text text-anchor="middle" x="169" y="-156.95" font-family="Times,serif" font-size="14.00">rhn</text>
</g>
<!-- hfx&#45;&#45;rhn -->
<g id="edge2" class="edge">
<title>hfx&#45;&#45;rhn</title>
<path fill="none" stroke="black" d="M115.29,-935.95C112,-909.29 112,-856.11 112,-811 112,-811 112,-811 112,-305 112,-256.34 137.61,-203 154.93,-177.78"/>
</g>
<!-- ntq -->
<g id="node4" class="node">
<title>ntq</title>
<ellipse fill="none" stroke="black" cx="289" cy="-18" rx="27" ry="18"/>
<text text-anchor="middle" x="289" y="-12.95" font-family="Times,serif" font-size="14.00">ntq</text>
</g>
<!-- hfx&#45;&#45;ntq -->
<g id="edge3" class="edge">
<title>hfx&#45;&#45;ntq</title>
<path fill="none" stroke="black" d="M99.39,-942.77C64.32,-922.05 0,-871.91 0,-811 0,-811 0,-811 0,-161 0,-46.13 189.76,-24.15 261.87,-19.97"/>
</g>
<!-- xhk -->
<g id="node5" class="node">
<title>xhk</title>
<ellipse fill="none" stroke="black" cx="233" cy="-90" rx="27" ry="18"/>
<text text-anchor="middle" x="233" y="-84.95" font-family="Times,serif" font-size="14.00">xhk</text>
</g>
<!-- hfx&#45;&#45;xhk -->
<g id="edge4" class="edge">
<title>hfx&#45;&#45;xhk</title>
<path fill="none" stroke="black" d="M105.81,-938.81C86.2,-914.05 56,-860.82 56,-811 56,-811 56,-811 56,-233 56,-156.43 159.05,-112.7 208.06,-97.33"/>
</g>
<!-- pzl -->
<g id="node6" class="node">
<title>pzl</title>
<ellipse fill="none" stroke="black" cx="409" cy="-594" rx="27" ry="18"/>
<text text-anchor="middle" x="409" y="-588.95" font-family="Times,serif" font-size="14.00">pzl</text>
</g>
<!-- hfx&#45;&#45;pzl -->
<g id="edge5" class="edge">
<title>hfx&#45;&#45;pzl</title>
<path fill="none" stroke="black" d="M148.15,-951.83C218.46,-947.2 400,-924.31 400,-811 400,-811 400,-811 400,-737 400,-691.89 400,-638.71 403.29,-612.05"/>
</g>
<!-- bvb&#45;&#45;hfx -->
<g id="edge14" class="edge">
<title>bvb&#45;&#45;hfx</title>
<path fill="none" stroke="black" d="M216.5,-896.75C196.76,-910.23 164.15,-930.5 142.48,-942.67"/>
</g>
<!-- bvb&#45;&#45;rhn -->
<g id="edge15" class="edge">
<title>bvb&#45;&#45;rhn</title>
<path fill="none" stroke="black" d="M217.81,-866.81C198.2,-842.05 168,-788.82 168,-739 168,-739 168,-739 168,-305 168,-259.81 163.91,-206.67 164.87,-180.03"/>
</g>
<!-- bvb&#45;&#45;ntq -->
<g id="edge16" class="edge">
<title>bvb&#45;&#45;ntq</title>
<path fill="none" stroke="black" d="M260.29,-880.1C373.64,-875.79 800,-852.42 800,-739 800,-739 800,-739 800,-161 800,-58.88 422.05,-27.67 316.16,-20.69"/>
</g>
<!-- bvb&#45;&#45;xhk -->
<g id="edge17" class="edge">
<title>bvb&#45;&#45;xhk</title>
<path fill="none" stroke="black" d="M227.29,-863.95C224,-837.29 224,-784.11 224,-739 224,-739 224,-739 224,-233 224,-187.89 224,-134.71 227.29,-108.05"/>
</g>
<!-- cmg -->
<g id="node11" class="node">
<title>cmg</title>
<ellipse fill="none" stroke="black" cx="345" cy="-810" rx="27.3" ry="18"/>
<text text-anchor="middle" x="345" y="-804.95" font-family="Times,serif" font-size="14.00">cmg</text>
</g>
<!-- bvb&#45;&#45;cmg -->
<g id="edge18" class="edge">
<title>bvb&#45;&#45;cmg</title>
<path fill="none" stroke="black" d="M249.14,-867.5C268.75,-854.07 301.43,-833.75 323.23,-821.49"/>
</g>
<!-- rhn&#45;&#45;hfx -->
<g id="edge19" class="edge">
<title>rhn&#45;&#45;hfx</title>
<path fill="none" stroke="black" d="M165.05,-179.86C154.26,-205.85 130,-257.64 130,-305 130,-811 130,-811 130,-811 130,-856.11 130,-909.29 126.71,-935.95"/>
</g>
<!-- rhn&#45;&#45;bvb -->
<g id="edge20" class="edge">
<title>rhn&#45;&#45;bvb</title>
<path fill="none" stroke="black" d="M176.2,-179.6C181.87,-206.09 186,-259.57 186,-305 186,-739 186,-739 186,-739 186,-786.97 213.99,-838.09 227.22,-863.93"/>
</g>
<!-- rhn&#45;&#45;xhk -->
<g id="edge21" class="edge">
<title>rhn&#45;&#45;xhk</title>
<path fill="none" stroke="black" d="M178.04,-144.76C188.02,-132.33 203.64,-115.4 215.85,-103.88"/>
</g>
<!-- jqt -->
<g id="node14" class="node">
<title>jqt</title>
<ellipse fill="none" stroke="black" cx="321" cy="-234" rx="27" ry="18"/>
<text text-anchor="middle" x="321" y="-228.95" font-family="Times,serif" font-size="14.00">jqt</text>
</g>
<!-- rhn&#45;&#45;jqt -->
<g id="edge22" class="edge">
<title>rhn&#45;&#45;jqt</title>
<path fill="none" stroke="black" d="M192.03,-171.49C221.84,-183.99 272.83,-207.38 301.07,-221.44"/>
</g>
<!-- ntq&#45;&#45;hfx -->
<g id="edge36" class="edge">
<title>ntq&#45;&#45;hfx</title>
<path fill="none" stroke="black" d="M261.97,-20.55C193.2,-26.02 18,-50.63 18,-161 18,-811 18,-811 18,-811 18,-868.77 75.86,-916.85 105.06,-939.33"/>
</g>
<!-- ntq&#45;&#45;bvb -->
<g id="edge37" class="edge">
<title>ntq&#45;&#45;bvb</title>
<path fill="none" stroke="black" d="M316.11,-20.29C424.31,-26.42 818,-56.77 818,-161 818,-739 818,-739 818,-739 818,-854.48 376.02,-876.61 260.33,-880.32"/>
</g>
<!-- ntq&#45;&#45;xhk -->
<g id="edge38" class="edge">
<title>ntq&#45;&#45;xhk</title>
<path fill="none" stroke="black" d="M281.52,-35.67C273.1,-47.84 259.93,-64.14 249.26,-75.5"/>
</g>
<!-- ntq&#45;&#45;jqt -->
<g id="edge39" class="edge">
<title>ntq&#45;&#45;jqt</title>
<path fill="none" stroke="black" d="M295.39,-35.94C305.21,-75.89 320.14,-175.68 322.31,-215.85"/>
</g>
<!-- xhk&#45;&#45;hfx -->
<g id="edge49" class="edge">
<title>xhk&#45;&#45;hfx</title>
<path fill="none" stroke="black" d="M210.23,-100.12C166.06,-117.59 74,-160.63 74,-233 74,-811 74,-811 74,-811 74,-858.97 101.99,-910.09 115.22,-935.93"/>
</g>
<!-- xhk&#45;&#45;bvb -->
<g id="edge50" class="edge">
<title>xhk&#45;&#45;bvb</title>
<path fill="none" stroke="black" d="M238.71,-108.05C242,-134.71 242,-187.89 242,-233 242,-739 242,-739 242,-739 242,-784.11 242,-837.29 238.71,-863.95"/>
</g>
<!-- xhk&#45;&#45;rhn -->
<g id="edge51" class="edge">
<title>xhk&#45;&#45;rhn</title>
<path fill="none" stroke="black" d="M223.9,-107.31C214,-119.64 198.59,-136.35 186.45,-147.83"/>
</g>
<!-- xhk&#45;&#45;ntq -->
<g id="edge52" class="edge">
<title>xhk&#45;&#45;ntq</title>
<path fill="none" stroke="black" d="M240.43,-72.41C248.81,-60.28 261.93,-44.03 272.6,-32.65"/>
</g>
<!-- xhk&#45;&#45;jqt -->
<g id="edge53" class="edge">
<title>xhk&#45;&#45;jqt</title>
<path fill="none" stroke="black" d="M246.41,-105.68C266.03,-132.23 300.73,-188.09 315.11,-216.15"/>
</g>
<!-- pzl&#45;&#45;hfx -->
<g id="edge59" class="edge">
<title>pzl&#45;&#45;hfx</title>
<path fill="none" stroke="black" d="M414.71,-612.05C418,-638.71 418,-691.89 418,-737 418,-811 418,-811 418,-811 418,-928.77 221.89,-948.87 148.27,-952.3"/>
</g>
<!-- lsr -->
<g id="node8" class="node">
<title>lsr</title>
<ellipse fill="none" stroke="black" cx="529" cy="-666" rx="27" ry="18"/>
<text text-anchor="middle" x="529" y="-660.95" font-family="Times,serif" font-size="14.00">lsr</text>
</g>
<!-- pzl&#45;&#45;lsr -->
<g id="edge60" class="edge">
<title>pzl&#45;&#45;lsr</title>
<path fill="none" stroke="black" d="M430.93,-604.94C454.3,-617.24 490.43,-638.21 511.84,-651.83"/>
</g>
<!-- nvd -->
<g id="node10" class="node">
<title>nvd</title>
<ellipse fill="none" stroke="black" cx="361" cy="-306" rx="27" ry="18"/>
<text text-anchor="middle" x="361" y="-300.95" font-family="Times,serif" font-size="14.00">nvd</text>
</g>
<!-- pzl&#45;&#45;nvd -->
<g id="edge61" class="edge">
<title>pzl&#45;&#45;nvd</title>
<path fill="none" stroke="black" d="M402.84,-576.39C389.92,-526.08 364.65,-375.7 360.47,-324.38"/>
</g>
<!-- rsh -->
<g id="node15" class="node">
<title>rsh</title>
<ellipse fill="none" stroke="black" cx="593" cy="-522" rx="27" ry="18"/>
<text text-anchor="middle" x="593" y="-516.95" font-family="Times,serif" font-size="14.00">rsh</text>
</g>
<!-- pzl&#45;&#45;rsh -->
<g id="edge62" class="edge">
<title>pzl&#45;&#45;rsh</title>
<path fill="none" stroke="black" d="M430.83,-582.82C465.6,-568.6 532.77,-543.12 568.9,-530.5"/>
</g>
<!-- lhk -->
<g id="node7" class="node">
<title>lhk</title>
<ellipse fill="none" stroke="black" cx="449" cy="-378" rx="27" ry="18"/>
<text text-anchor="middle" x="449" y="-372.95" font-family="Times,serif" font-size="14.00">lhk</text>
</g>
<!-- lhk&#45;&#45;lsr -->
<g id="edge6" class="edge">
<title>lhk&#45;&#45;lsr</title>
<path fill="none" stroke="black" d="M456.99,-395.51C475.51,-445.7 517.61,-596.12 527.57,-647.54"/>
</g>
<!-- frs -->
<g id="node9" class="node">
<title>frs</title>
<ellipse fill="none" stroke="black" cx="565" cy="-450" rx="27" ry="18"/>
<text text-anchor="middle" x="565" y="-444.95" font-family="Times,serif" font-size="14.00">frs</text>
</g>
<!-- lhk&#45;&#45;frs -->
<g id="edge7" class="edge">
<title>lhk&#45;&#45;frs</title>
<path fill="none" stroke="black" d="M470.57,-389.06C493.07,-401.27 527.47,-421.92 548.09,-435.5"/>
</g>
<!-- lhk&#45;&#45;nvd -->
<g id="edge8" class="edge">
<title>lhk&#45;&#45;nvd</title>
<path fill="none" stroke="black" d="M429.3,-365.44C412.43,-353.56 388.94,-335 374.2,-322"/>
</g>
<!-- lhk&#45;&#45;cmg -->
<g id="edge9" class="edge">
<title>lhk&#45;&#45;cmg</title>
<path fill="none" stroke="black" d="M439.69,-395.15C415.27,-429.19 354,-511.83 354,-593 354,-667 354,-667 354,-667 354,-712.11 354,-765.29 350.71,-791.95"/>
</g>
<!-- lsr&#45;&#45;pzl -->
<g id="edge23" class="edge">
<title>lsr&#45;&#45;pzl</title>
<path fill="none" stroke="black" d="M507.19,-655.12C483.82,-642.83 447.62,-621.82 426.17,-608.17"/>
</g>
<!-- lsr&#45;&#45;lhk -->
<g id="edge24" class="edge">
<title>lsr&#45;&#45;lhk</title>
<path fill="none" stroke="black" d="M520.98,-648.39C502.43,-598.08 460.34,-447.7 450.42,-396.38"/>
</g>
<!-- lsr&#45;&#45;frs -->
<g id="edge25" class="edge">
<title>lsr&#45;&#45;frs</title>
<path fill="none" stroke="black" d="M528.01,-647.85C530.93,-607.68 547.72,-507.89 558.29,-467.94"/>
</g>
<!-- rzs -->
<g id="node13" class="node">
<title>rzs</title>
<ellipse fill="none" stroke="black" cx="585" cy="-738" rx="27" ry="18"/>
<text text-anchor="middle" x="585" y="-732.95" font-family="Times,serif" font-size="14.00">rzs</text>
</g>
<!-- lsr&#45;&#45;rzs -->
<g id="edge26" class="edge">
<title>lsr&#45;&#45;rzs</title>
<path fill="none" stroke="black" d="M545.4,-680.65C556.07,-692.03 569.19,-708.28 577.57,-720.41"/>
</g>
<!-- lsr&#45;&#45;rsh -->
<g id="edge27" class="edge">
<title>lsr&#45;&#45;rsh</title>
<path fill="none" stroke="black" d="M532.14,-647.87C541.75,-619.99 566.5,-565.21 581.64,-538.45"/>
</g>
<!-- frs&#45;&#45;lhk -->
<g id="edge40" class="edge">
<title>frs&#45;&#45;lhk</title>
<path fill="none" stroke="black" d="M543.2,-438.82C520.6,-426.54 486.14,-405.84 465.62,-392.3"/>
</g>
<!-- frs&#45;&#45;lsr -->
<g id="edge41" class="edge">
<title>frs&#45;&#45;lsr</title>
<path fill="none" stroke="black" d="M565.98,-468.31C563.02,-508.63 546.22,-608.4 535.67,-648.21"/>
</g>
<!-- qnr -->
<g id="node12" class="node">
<title>qnr</title>
<ellipse fill="none" stroke="black" cx="645" cy="-234" rx="27" ry="18"/>
<text text-anchor="middle" x="645" y="-228.95" font-family="Times,serif" font-size="14.00">qnr</text>
</g>
<!-- frs&#45;&#45;qnr -->
<g id="edge42" class="edge">
<title>frs&#45;&#45;qnr</title>
<path fill="none" stroke="black" d="M567.53,-431.85C578.8,-391.38 616.58,-290.41 635.23,-251.06"/>
</g>
<!-- frs&#45;&#45;rsh -->
<g id="edge43" class="edge">
<title>frs&#45;&#45;rsh</title>
<path fill="none" stroke="black" d="M576.76,-466.2C582.52,-477.24 588.58,-492.2 591.99,-503.7"/>
</g>
<!-- nvd&#45;&#45;pzl -->
<g id="edge44" class="edge">
<title>nvd&#45;&#45;pzl</title>
<path fill="none" stroke="black" d="M367.23,-323.87C380.16,-374.41 405.33,-524.24 409.52,-575.54"/>
</g>
<!-- nvd&#45;&#45;lhk -->
<g id="edge45" class="edge">
<title>nvd&#45;&#45;lhk</title>
<path fill="none" stroke="black" d="M380.74,-318.59C397.67,-330.52 421.25,-349.15 435.97,-362.15"/>
</g>
<!-- nvd&#45;&#45;cmg -->
<g id="edge46" class="edge">
<title>nvd&#45;&#45;cmg</title>
<path fill="none" stroke="black" d="M352.2,-323.13C334.39,-348.15 298,-398.69 298,-449 298,-667 298,-667 298,-667 298,-714.97 325.99,-766.09 339.22,-791.93"/>
</g>
<!-- nvd&#45;&#45;qnr -->
<g id="edge47" class="edge">
<title>nvd&#45;&#45;qnr</title>
<path fill="none" stroke="black" d="M385.52,-297.9C439.04,-283.86 565.16,-252.81 619.53,-240.34"/>
</g>
<!-- nvd&#45;&#45;jqt -->
<g id="edge48" class="edge">
<title>nvd&#45;&#45;jqt</title>
<path fill="none" stroke="black" d="M346.88,-290.15C339.17,-279.08 330.41,-263.92 324.97,-252.29"/>
</g>
<!-- cmg&#45;&#45;bvb -->
<g id="edge54" class="edge">
<title>cmg&#45;&#45;bvb</title>
<path fill="none" stroke="black" d="M328.5,-824.75C308.76,-838.23 276.15,-858.5 254.48,-870.67"/>
</g>
<!-- cmg&#45;&#45;lhk -->
<g id="edge55" class="edge">
<title>cmg&#45;&#45;lhk</title>
<path fill="none" stroke="black" d="M339.29,-791.95C336,-765.29 336,-712.11 336,-667 336,-667 336,-667 336,-593 336,-509.56 400.75,-424.56 432.49,-392.41"/>
</g>
<!-- cmg&#45;&#45;nvd -->
<g id="edge56" class="edge">
<title>cmg&#45;&#45;nvd</title>
<path fill="none" stroke="black" d="M329.81,-794.81C310.2,-770.05 280,-716.82 280,-667 280,-667 280,-667 280,-449 280,-396.48 319.66,-343.7 343.79,-319.98"/>
</g>
<!-- cmg&#45;&#45;qnr -->
<g id="edge57" class="edge">
<title>cmg&#45;&#45;qnr</title>
<path fill="none" stroke="black" d="M372.06,-806.98C421.58,-802.78 528.56,-790.44 612,-756 677.4,-729 744,-737.76 744,-667 744,-667 744,-667 744,-377 744,-320.01 688.21,-271.59 660.17,-248.85"/>
</g>
<!-- cmg&#45;&#45;rzs -->
<g id="edge58" class="edge">
<title>cmg&#45;&#45;rzs</title>
<path fill="none" stroke="black" d="M368.92,-800.7C414.62,-786.46 513.31,-757.73 559.91,-745.14"/>
</g>
<!-- qnr&#45;&#45;frs -->
<g id="edge10" class="edge">
<title>qnr&#45;&#45;frs</title>
<path fill="none" stroke="black" d="M642.46,-252.16C631.2,-292.62 593.44,-393.55 574.79,-432.92"/>
</g>
<!-- qnr&#45;&#45;nvd -->
<g id="edge11" class="edge">
<title>qnr&#45;&#45;nvd</title>
<path fill="none" stroke="black" d="M620.35,-242.13C566.8,-256.18 441.03,-287.14 386.62,-299.62"/>
</g>
<!-- qnr&#45;&#45;cmg -->
<g id="edge12" class="edge">
<title>qnr&#45;&#45;cmg</title>
<path fill="none" stroke="black" d="M666.28,-245.54C700.3,-266.61 762,-317.07 762,-377 762,-667 762,-667 762,-667 762,-737.76 695.4,-729 630,-756 540.93,-792.77 425.02,-804.35 372.56,-807.72"/>
</g>
<!-- qnr&#45;&#45;rzs -->
<g id="edge13" class="edge">
<title>qnr&#45;&#45;rzs</title>
<path fill="none" stroke="black" d="M659.49,-249.29C677.96,-274.2 706,-327.64 706,-377 706,-595 706,-595 706,-595 706,-655.91 641.68,-706.05 606.61,-726.77"/>
</g>
<!-- rzs&#45;&#45;lsr -->
<g id="edge32" class="edge">
<title>rzs&#45;&#45;lsr</title>
<path fill="none" stroke="black" d="M568.74,-723.5C558.07,-712.14 544.9,-695.84 536.48,-683.67"/>
</g>
<!-- rzs&#45;&#45;cmg -->
<g id="edge33" class="edge">
<title>rzs&#45;&#45;cmg</title>
<path fill="none" stroke="black" d="M561.35,-747.22C515.85,-761.4 417.14,-790.14 370.35,-802.79"/>
</g>
<!-- rzs&#45;&#45;qnr -->
<g id="edge34" class="edge">
<title>rzs&#45;&#45;qnr</title>
<path fill="none" stroke="black" d="M600.94,-723.33C630.14,-700.85 688,-652.77 688,-595 688,-595 688,-595 688,-377 688,-329.48 662.01,-278.17 649.96,-252.19"/>
</g>
<!-- rzs&#45;&#45;rsh -->
<g id="edge35" class="edge">
<title>rzs&#45;&#45;rsh</title>
<path fill="none" stroke="black" d="M581.76,-719.85C579.43,-679.78 583.15,-580.38 588.47,-540.23"/>
</g>
<!-- jqt&#45;&#45;rhn -->
<g id="edge28" class="edge">
<title>jqt&#45;&#45;rhn</title>
<path fill="none" stroke="black" d="M297.75,-224.42C267.82,-211.86 216.81,-188.45 188.7,-174.44"/>
</g>
<!-- jqt&#45;&#45;ntq -->
<g id="edge29" class="edge">
<title>jqt&#45;&#45;ntq</title>
<path fill="none" stroke="black" d="M314.65,-216.21C304.83,-176.4 289.9,-76.63 287.7,-36.31"/>
</g>
<!-- jqt&#45;&#45;xhk -->
<g id="edge30" class="edge">
<title>jqt&#45;&#45;xhk</title>
<path fill="none" stroke="black" d="M307.41,-218.07C287.77,-191.44 253.28,-135.91 238.92,-107.91"/>
</g>
<!-- jqt&#45;&#45;nvd -->
<g id="edge31" class="edge">
<title>jqt&#45;&#45;nvd</title>
<path fill="none" stroke="black" d="M335.04,-249.74C342.78,-260.82 351.57,-276.04 357.03,-287.7"/>
</g>
<!-- rsh&#45;&#45;pzl -->
<g id="edge63" class="edge">
<title>rsh&#45;&#45;pzl</title>
<path fill="none" stroke="black" d="M571.28,-533.14C536.52,-547.35 469.23,-572.88 433.06,-585.51"/>
</g>
<!-- rsh&#45;&#45;lsr -->
<g id="edge64" class="edge">
<title>rsh&#45;&#45;lsr</title>
<path fill="none" stroke="black" d="M589.86,-540.13C580.28,-567.92 555.67,-622.4 540.53,-649.26"/>
</g>
<!-- rsh&#45;&#45;frs -->
<g id="edge65" class="edge">
<title>rsh&#45;&#45;frs</title>
<path fill="none" stroke="black" d="M581.07,-505.46C575.38,-494.51 569.44,-479.82 566.05,-468.46"/>
</g>
<!-- rsh&#45;&#45;rzs -->
<g id="edge66" class="edge">
<title>rsh&#45;&#45;rzs</title>
<path fill="none" stroke="black" d="M596.24,-540.23C598.56,-580.38 594.84,-679.78 589.52,-719.85"/>
</g>
</g>
</svg>
